<svg width="272" height="61" viewBox="0 0 272 61" fill="none" xmlns="http://www.w3.org/2000/svg">
<rect width="60.3179" height="60.3179" rx="20.106" fill="white"/>
<path d="M23.4615 26.237L27.1986 38.594L25.2067 45.18C24.7543 46.6749 23.5953 47.8462 22.1144 48.3046C19.6473 49.068 17.0345 47.6685 16.2821 45.1778C14.986 40.8906 13.0637 34.535 11.8851 30.6382C11.3088 28.7332 12.3733 26.7184 14.2619 26.1371C14.6087 26.0308 14.9599 25.9792 15.3046 25.9792C16.8366 25.9792 18.2534 26.9794 18.7242 28.5335L20.7455 35.2149L23.4615 26.237Z" fill="black"/>
<path d="M36.6959 48.3619C36.6731 48.369 36.6503 48.376 36.6275 48.3831C34.1865 49.1389 31.6008 47.7532 30.8554 45.2897L23.3925 20.6191C22.8185 18.7213 23.8756 16.6553 25.7417 16.0278C27.6077 15.4004 29.6041 16.4397 30.1781 18.3373L35.3033 35.2797L41.7551 13.9528C42.3372 12.0286 44.2731 11.1903 46.057 12.0901C47.9455 12.6715 49.0091 14.687 48.4328 16.5919C45.5411 26.1508 42.6493 35.7096 39.7576 45.2685C39.3098 46.7486 38.1625 47.9078 36.6959 48.3619Z" fill="black"/>
<path d="M95.2994 45.1582L87.4063 15.9025H92.8844L96.7524 31.6691C97.0535 32.9519 97.3349 34.2347 97.5967 35.5176C97.8716 36.7873 98.1334 38.0635 98.3821 39.3463C98.6439 38.0635 98.9188 36.7873 99.2067 35.5176C99.4947 34.2347 99.7958 32.9519 100.11 31.6691L104.135 15.9025H109.613L113.599 31.6691C113.913 32.9389 114.214 34.2086 114.502 35.4783C114.79 36.7349 115.065 37.9915 115.327 39.2482C115.824 36.7742 116.374 34.2478 116.976 31.6691L120.844 15.9025H126.342L118.429 45.1582H112.558L108.082 28.2331C107.872 27.4346 107.669 26.5968 107.473 25.7198C107.277 24.8297 107.074 23.9003 106.864 22.9317C106.655 23.9003 106.452 24.8297 106.256 25.7198C106.059 26.5968 105.856 27.4346 105.647 28.2331L101.19 45.1582H95.2994ZM123.811 45.1582L134.257 15.9025H140.775L151.182 45.1582H145.468L143.132 38.1682H131.783L129.387 45.1582H123.811ZM133.236 33.9075H141.718L140.343 29.7842C139.911 28.436 139.466 27.0288 139.008 25.5627C138.563 24.0967 138.066 22.4408 137.516 20.5952C136.966 22.4408 136.462 24.0967 136.004 25.5627C135.546 27.0288 135.094 28.436 134.649 29.7842L133.236 33.9075ZM159.136 15.9025V45.1582H153.952V15.9025H159.136ZM176.848 45.6294C174.152 45.6294 171.769 45.0077 169.701 43.7641C167.633 42.5206 166.01 40.7666 164.832 38.502C163.654 36.2375 163.065 33.5868 163.065 30.55C163.065 27.4869 163.654 24.8232 164.832 22.5586C166.01 20.2941 167.633 18.5401 169.701 17.2965C171.769 16.053 174.152 15.4312 176.848 15.4312C179.047 15.4312 181.037 15.8632 182.817 16.7271C184.597 17.591 186.063 18.8084 187.215 20.3792C188.38 21.95 189.126 23.8022 189.454 25.9358H184.172C183.779 24.0771 182.935 22.6372 181.639 21.6162C180.343 20.5952 178.759 20.0847 176.887 20.0847C175.107 20.0847 173.569 20.5166 172.273 21.3805C170.99 22.2445 170.002 23.4618 169.308 25.0326C168.628 26.6034 168.287 28.4425 168.287 30.55C168.287 32.6443 168.628 34.4769 169.308 36.0477C170.002 37.6054 170.99 38.8162 172.273 39.6801C173.556 40.544 175.094 40.976 176.887 40.976C178.746 40.976 180.323 40.472 181.619 39.4641C182.915 38.4562 183.773 37.0229 184.191 35.1641H189.454C189.126 37.2978 188.38 39.15 187.215 40.7208C186.063 42.2784 184.597 43.4893 182.817 44.3532C181.037 45.204 179.047 45.6294 176.848 45.6294ZM205.909 45.6294C203.291 45.6294 200.955 45.0077 198.9 43.7641C196.858 42.5075 195.241 40.7535 194.05 38.502C192.872 36.2375 192.283 33.5868 192.283 30.55C192.283 27.5 192.872 24.8428 194.05 22.5783C195.241 20.3137 196.858 18.5597 198.9 17.3162C200.955 16.0595 203.291 15.4312 205.909 15.4312C208.514 15.4312 210.844 16.0595 212.899 17.3162C214.954 18.5597 216.571 20.3137 217.749 22.5783C218.94 24.8428 219.536 27.5 219.536 30.55C219.536 33.5868 218.94 36.2375 217.749 38.502C216.571 40.7666 214.954 42.5206 212.899 43.7641C210.844 45.0077 208.514 45.6294 205.909 45.6294ZM205.909 40.976C207.506 40.976 208.933 40.5702 210.19 39.7587C211.459 38.9471 212.461 37.769 213.194 36.2244C213.927 34.6667 214.293 32.7752 214.293 30.55C214.293 28.3116 213.927 26.4136 213.194 24.8559C212.461 23.2982 211.459 22.1136 210.19 21.302C208.933 20.4904 207.506 20.0847 205.909 20.0847C204.312 20.0847 202.879 20.4904 201.609 21.302C200.353 22.1136 199.351 23.2982 198.605 24.8559C197.872 26.4136 197.506 28.3116 197.506 30.55C197.506 32.7752 197.872 34.6667 198.605 36.2244C199.351 37.769 200.353 38.9471 201.609 39.7587C202.879 40.5702 204.312 40.976 205.909 40.976ZM223.465 45.1582V15.9025H234.872C237.019 15.9025 238.871 16.2821 240.429 17.0413C242 17.8005 243.211 18.8804 244.062 20.281C244.912 21.6816 245.338 23.3375 245.338 25.2486C245.338 27.2382 244.847 28.9465 243.865 30.3733C242.883 31.8 241.522 32.8669 239.781 33.5737L245.888 45.1582H240.174L234.676 34.5162C234.637 34.5162 234.591 34.5162 234.539 34.5162H228.648V45.1582H223.465ZM228.648 30.2358H234.617C236.345 30.2358 237.713 29.7908 238.721 28.9006C239.729 27.9975 240.233 26.7801 240.233 25.2486C240.233 23.7302 239.722 22.5259 238.701 21.6358C237.693 20.7457 236.319 20.3006 234.578 20.3006H228.648V30.2358ZM249.463 45.1582V15.9025H269.785V20.3988H254.647V28.0956H268.646V32.5134H254.647V40.6619H269.785V45.1582H249.463Z" fill="url(#paint0_linear_8031_1861)"/>
<defs>
<linearGradient id="paint0_linear_8031_1861" x1="87.1257" y1="30.1582" x2="271.126" y2="30.1582" gradientUnits="userSpaceOnUse">
<stop stop-color="white"/>
<stop offset="1" stop-color="#BEC6DD"/>
</linearGradient>
</defs>
</svg>
